<?xml version="1.0" encoding="utf-8"?><!-- Uploaded to: SVG Repo, www.svgrepo.com, Generator: SVG Repo Mixer Tools -->
<svg width="800px" height="800px" viewBox="0 0 24 24" fill="none" xmlns="http://www.w3.org/2000/svg">
<path d="M12 7.49976V19.5M12 7.49976L13.7333 6.6332C14.5663 6.21673 15.4849 5.9999 16.4162 5.99988L18.9999 5.99981C20.1045 5.99978 21 6.89522 21 7.99981V15.9998C21 17.1043 20.1046 17.9998 19 17.9998H16.4166C15.485 17.9998 14.5662 18.2167 13.733 18.6334L12 19.5M12 7.49976L10.2667 6.63326C9.43369 6.21681 8.51514 5.99999 7.58379 5.99999H5C3.89543 5.99999 3 6.89543 3 8V16C3 17.1046 3.89543 18 5 18H7.58359C8.51506 18 9.43374 18.2169 10.2669 18.6334L12 19.5" stroke="#000000" stroke-width="2" stroke-linecap="round" stroke-linejoin="round"/>
</svg>